<svg width="400" height="400" viewBox="0 0 400 400" fill="none" xmlns="http://www.w3.org/2000/svg">
<g clip-path="url(#clip0_12_8)">
<mask id="path-1-inside-1_12_8" fill="white">
<path d="M200 0C247.021 5.60714e-07 292.538 16.5669 328.558 46.7911C364.577 77.0154 388.797 118.964 396.962 165.27L298.481 182.635C294.398 159.482 282.289 138.508 264.279 123.396C246.269 108.283 223.51 100 200 100V0Z"/>
</mask>
<path d="M200 0C247.021 5.60714e-07 292.538 16.5669 328.558 46.7911C364.577 77.0154 388.797 118.964 396.962 165.27L298.481 182.635C294.398 159.482 282.289 138.508 264.279 123.396C246.269 108.283 223.51 100 200 100V0Z" fill="#5971C0" stroke="white" stroke-width="2" mask="url(#path-1-inside-1_12_8)"/>
<mask id="path-2-inside-2_12_8" fill="white">
<path d="M396.962 165.27C405.127 211.577 396.715 259.279 373.205 300L286.603 250C298.358 229.64 302.563 205.788 298.481 182.635L396.962 165.27Z"/>
</mask>
<path d="M396.962 165.27C405.127 211.577 396.715 259.279 373.205 300L286.603 250C298.358 229.64 302.563 205.788 298.481 182.635L396.962 165.27Z" fill="#9EC97F" stroke="white" stroke-width="2" mask="url(#path-2-inside-2_12_8)"/>
<mask id="path-3-inside-3_12_8" fill="white">
<path d="M373.205 300C355.651 330.404 330.404 355.651 300 373.205C269.596 390.759 235.107 400 200 400C164.893 400 130.404 390.759 100 373.205C69.5962 355.651 44.3486 330.404 26.7949 300L113.397 250C122.174 265.202 134.798 277.826 150 286.603C165.202 295.379 182.446 300 200 300C217.554 300 234.798 295.379 250 286.603C265.202 277.826 277.826 265.202 286.603 250L373.205 300Z"/>
</mask>
<path d="M373.205 300C355.651 330.404 330.404 355.651 300 373.205C269.596 390.759 235.107 400 200 400C164.893 400 130.404 390.759 100 373.205C69.5962 355.651 44.3486 330.404 26.7949 300L113.397 250C122.174 265.202 134.798 277.826 150 286.603C165.202 295.379 182.446 300 200 300C217.554 300 234.798 295.379 250 286.603C265.202 277.826 277.826 265.202 286.603 250L373.205 300Z" fill="#F3C96B" stroke="white" stroke-width="2" mask="url(#path-3-inside-3_12_8)"/>
<mask id="path-4-inside-4_12_8" fill="white">
<path d="M26.7949 300C9.24126 269.596 1.11594e-06 235.107 0 200C-1.11594e-06 164.893 9.24125 130.404 26.7949 100C44.3486 69.5962 69.5962 44.3486 100 26.7949C130.404 9.24125 164.893 -4.18651e-07 200 0V100C182.446 100 165.202 104.621 150 113.397C134.798 122.174 122.174 134.798 113.397 150C104.621 165.202 100 182.446 100 200C100 217.554 104.621 234.798 113.397 250L26.7949 300Z"/>
</mask>
<path d="M26.7949 300C9.24126 269.596 1.11594e-06 235.107 0 200C-1.11594e-06 164.893 9.24125 130.404 26.7949 100C44.3486 69.5962 69.5962 44.3486 100 26.7949C130.404 9.24125 164.893 -4.18651e-07 200 0V100C182.446 100 165.202 104.621 150 113.397C134.798 122.174 122.174 134.798 113.397 150C104.621 165.202 100 182.446 100 200C100 217.554 104.621 234.798 113.397 250L26.7949 300Z" fill="#DE6E6A" stroke="white" stroke-width="2" mask="url(#path-4-inside-4_12_8)"/>
</g>
<defs>
<clipPath id="clip0_12_8">
<rect width="400" height="400" fill="white"/>
</clipPath>
</defs>
</svg>
