<svg width="400" height="400" viewBox="0 0 400 400" fill="none" xmlns="http://www.w3.org/2000/svg">
<g clip-path="url(#clip0_14_72)">
<mask id="path-1-inside-1_14_72" fill="white">
<path d="M200 0C246.409 -2.02859e-06 291.373 16.1393 327.188 45.6524C363.003 75.1656 387.44 116.215 396.312 161.768C405.183 207.321 397.937 254.541 375.814 295.338C353.692 336.134 318.07 367.968 275.053 385.383L256.29 339.038C288.553 325.976 315.269 302.101 331.861 271.503C348.453 240.906 353.887 205.491 347.234 171.326C340.58 137.162 322.253 106.374 295.391 84.2393C268.53 62.1045 234.806 50 200 50L200 0Z"/>
</mask>
<path d="M200 0C246.409 -2.02859e-06 291.373 16.1393 327.188 45.6524C363.003 75.1656 387.44 116.215 396.312 161.768C405.183 207.321 397.937 254.541 375.814 295.338C353.692 336.134 318.07 367.968 275.053 385.383L256.29 339.038C288.553 325.976 315.269 302.101 331.861 271.503C348.453 240.906 353.887 205.491 347.234 171.326C340.58 137.162 322.253 106.374 295.391 84.2393C268.53 62.1045 234.806 50 200 50L200 0Z" fill="#5971C0" stroke="white" stroke-width="2" mask="url(#path-1-inside-1_14_72)"/>
<mask id="path-2-inside-2_14_72" fill="white">
<path d="M275.053 385.383C247.203 396.659 217.17 401.514 187.186 399.589C157.202 397.664 128.036 389.008 101.856 374.264C75.6767 359.52 53.1554 339.066 35.9656 314.423C18.7757 289.78 7.359 261.581 2.56364 231.92L51.9227 223.94C55.5193 246.186 64.0817 267.335 76.9742 285.818C89.8666 304.3 106.758 319.64 126.392 330.698C146.027 341.756 167.901 348.248 190.389 349.692C212.878 351.136 235.402 347.494 256.29 339.038L275.053 385.383Z"/>
</mask>
<path d="M275.053 385.383C247.203 396.659 217.17 401.514 187.186 399.589C157.202 397.664 128.036 389.008 101.856 374.264C75.6767 359.52 53.1554 339.066 35.9656 314.423C18.7757 289.78 7.359 261.581 2.56364 231.92L51.9227 223.94C55.5193 246.186 64.0817 267.335 76.9742 285.818C89.8666 304.3 106.758 319.64 126.392 330.698C146.027 341.756 167.901 348.248 190.389 349.692C212.878 351.136 235.402 347.494 256.29 339.038L275.053 385.383Z" fill="#9EC97F" stroke="white" stroke-width="2" mask="url(#path-2-inside-2_14_72)"/>
<mask id="path-3-inside-3_14_72" fill="white">
<path d="M2.56364 231.92C-2.57745 200.12 0.0384611 167.55 10.1889 136.978C20.3392 106.407 37.7237 78.7397 60.8635 56.3301L95.6476 92.2476C78.2928 109.055 65.2544 129.805 57.6416 152.734C50.0288 175.662 48.0669 200.09 51.9227 223.94L2.56364 231.92Z"/>
</mask>
<path d="M2.56364 231.92C-2.57745 200.12 0.0384611 167.55 10.1889 136.978C20.3392 106.407 37.7237 78.7397 60.8635 56.3301L95.6476 92.2476C78.2928 109.055 65.2544 129.805 57.6416 152.734C50.0288 175.662 48.0669 200.09 51.9227 223.94L2.56364 231.92Z" fill="#F3C96B" stroke="white" stroke-width="2" mask="url(#path-3-inside-3_14_72)"/>
<mask id="path-4-inside-4_14_72" fill="white">
<path d="M60.8635 56.3301C98.1698 20.201 148.067 -6.19299e-07 200 0V50C161.05 50 123.627 65.1508 95.6476 92.2476L60.8635 56.3301Z"/>
</mask>
<path d="M60.8635 56.3301C98.1698 20.201 148.067 -6.19299e-07 200 0V50C161.05 50 123.627 65.1508 95.6476 92.2476L60.8635 56.3301Z" fill="#DE6E6A" stroke="white" stroke-width="2" mask="url(#path-4-inside-4_14_72)"/>
<g clip-path="url(#clip1_14_72)">
<mask id="path-5-inside-5_14_72" fill="white">
<path d="M200 50C228.865 50 257.117 58.3284 281.366 73.986C305.616 89.6435 324.832 111.965 336.71 138.273C348.589 164.58 352.624 193.757 348.333 222.301C344.042 250.845 331.605 277.545 312.517 299.197C293.428 320.849 268.497 336.533 240.716 344.368C212.935 352.203 183.483 351.856 155.894 343.369C128.305 334.881 103.751 318.614 85.1775 296.518C66.6042 274.423 54.8005 247.437 51.1828 218.8L100.789 212.533C103.2 231.625 111.069 249.615 123.452 264.346C135.834 279.076 152.203 289.921 170.596 295.579C188.989 301.238 208.623 301.469 227.144 296.246C245.665 291.022 262.285 280.566 275.011 266.131C287.737 251.697 296.028 233.897 298.889 214.867C301.75 195.838 299.059 176.387 291.14 158.849C283.221 141.31 270.41 126.429 254.244 115.991C238.078 105.552 219.243 100 200 100V50Z"/>
</mask>
<path d="M200 50C228.865 50 257.117 58.3284 281.366 73.986C305.616 89.6435 324.832 111.965 336.71 138.273C348.589 164.58 352.624 193.757 348.333 222.301C344.042 250.845 331.605 277.545 312.517 299.197C293.428 320.849 268.497 336.533 240.716 344.368C212.935 352.203 183.483 351.856 155.894 343.369C128.305 334.881 103.751 318.614 85.1775 296.518C66.6042 274.423 54.8005 247.437 51.1828 218.8L100.789 212.533C103.2 231.625 111.069 249.615 123.452 264.346C135.834 279.076 152.203 289.921 170.596 295.579C188.989 301.238 208.623 301.469 227.144 296.246C245.665 291.022 262.285 280.566 275.011 266.131C287.737 251.697 296.028 233.897 298.889 214.867C301.75 195.838 299.059 176.387 291.14 158.849C283.221 141.31 270.41 126.429 254.244 115.991C238.078 105.552 219.243 100 200 100V50Z" fill="#414144" stroke="white" stroke-width="2" mask="url(#path-5-inside-5_14_72)"/>
<mask id="path-6-inside-6_14_72" fill="white">
<path d="M51.1828 218.8C48.515 197.682 50.3722 176.239 56.631 155.894C62.8899 135.549 73.4069 116.77 87.4833 100.803C101.56 84.8367 118.873 72.0488 138.273 63.2895C157.673 54.5302 178.714 50 200 50V100C185.81 100 171.782 103.02 158.849 108.86C145.915 114.699 134.373 123.224 124.989 133.869C115.605 144.513 108.593 157.033 104.421 170.596C100.248 184.159 99.01 198.455 100.789 212.533L51.1828 218.8Z"/>
</mask>
<path d="M51.1828 218.8C48.515 197.682 50.3722 176.239 56.631 155.894C62.8899 135.549 73.4069 116.77 87.4833 100.803C101.56 84.8367 118.873 72.0488 138.273 63.2895C157.673 54.5302 178.714 50 200 50V100C185.81 100 171.782 103.02 158.849 108.86C145.915 114.699 134.373 123.224 124.989 133.869C115.605 144.513 108.593 157.033 104.421 170.596C100.248 184.159 99.01 198.455 100.789 212.533L51.1828 218.8Z" fill="#929292" stroke="white" stroke-width="2" mask="url(#path-6-inside-6_14_72)"/>
</g>
</g>
<defs>
<clipPath id="clip0_14_72">
<rect width="400" height="400" fill="white"/>
</clipPath>
<clipPath id="clip1_14_72">
<rect width="300" height="300" fill="white" transform="translate(50 50)"/>
</clipPath>
</defs>
</svg>
